# xmcd
#
# Track frame offsets:
#	182
#	13232
#	25597
#	38952
#	50405
#	65592
#	77107
#	91285
#	104720
#	114785
#	129817
#	144920
#	160490
#	175917
#	193150
#	204917
#	218980
#	229707
#	240637
#	252220
#	268265
#	279052
#	297485
#	309897
#	320450
#
# Disc length: 4413 seconds
#
# Revision: 2
# Processed by: cddbd v1.5.2PL0 Copyright (c) Steve Scherf et al.
# Submitted via: audiograbber 1.83.01
#
DISCID=60113b19
DTITLE=Kenny Rogers - Collection
DYEAR=1993
DGENRE=Country
TTITLE0=Ruby (Don´t Take Your Love To Town)
TTITLE1=Reuben James
TTITLE2=Shine On Ruby Moutain
TTITLE3=Me and Bobby Mcgee
TTITLE4=For The Good Times
TTITLE5=Poem For A Little Lady
TTITLE6=It´s Raining In My Mind
TTITLE7=A Stranger In My Place
TTITLE8=Where Does Rosie Go
TTITLE9=Tell It All Brother
TTITLE10=Just Dropped In (To See What Condition My Condition Was In)
TTITLE11=Tulsa Turnaround
TTITLE12=My Washington Woman
TTITLE13=Somthing´s Burning
TTITLE14=Elvira
TTITLE15=Loser
TTITLE16=Goodtime Liberator
TTITLE17=Always Leaving, Always Gone
TTITLE18=Girl Get A Hold Of Yourself
TTITLE19=The Way It Used To Be
TTITLE20=She Even Woke Me Up To Say Goodbye
TTITLE21=The King Of Oak Street
TTITLE22=Shadow In The Corner Of Your Mind
TTITLE23=Ticket To Nowhere
TTITLE24=Homemade Lies
EXTD=
EXTT0=
EXTT1=
EXTT2=
EXTT3=
EXTT4=
EXTT5=
EXTT6=
EXTT7=
EXTT8=
EXTT9=
EXTT10=
EXTT11=
EXTT12=
EXTT13=
EXTT14=
EXTT15=
EXTT16=
EXTT17=
EXTT18=
EXTT19=
EXTT20=
EXTT21=
EXTT22=
EXTT23=
EXTT24=
PLAYORDER=
